<?xml version="1.0"?>
<mxfile host="embed.diagrams.net" modified="2020-07-31T07:01:52.981Z" agent="5.0 (X11; Linux x86_64) AppleWebKit/537.36 (KHTML, like Gecko) Chrome/84.0.4147.105 Safari/537.36" etag="5QpJJwF-OqXSr8ekDda9" version="13.5.7" pages="3">
  <diagram id="z88jlEKxiXyhyjD-C5Rb" name="Far edge">
    <mxGraphModel dx="2" dy="1" grid="1" gridSize="10" guides="1" tooltips="1" connect="1" arrows="1" fold="1" page="1" pageScale="1" pageWidth="1654" pageHeight="1169" math="1" shadow="0">
      <root>
        <mxCell id="0"/>
        <mxCell id="1" parent="0"/>
        <mxCell id="12" value="`A`&lt;br&gt;&lt;div&gt;&lt;br&gt;&lt;/div&gt;&lt;div&gt;&lt;br&gt;&lt;/div&gt;" style="whiteSpace=wrap;html=1;rounded=0;shadow=0;strokeWidth=1;fillColor=#6d8764;fontSize=24;align=right;strokeColor=#3A5431;" parent="1" vertex="1">
          <mxGeometry x="280" y="270" width="20" height="20" as="geometry"/>
        </mxCell>
        <mxCell id="13" value="`B`&lt;br&gt;&lt;br&gt;&lt;div&gt;&lt;br&gt;&lt;/div&gt;" style="whiteSpace=wrap;html=1;rounded=0;shadow=0;strokeWidth=1;fillColor=#e51400;fontSize=24;align=right;strokeColor=#B20000;" parent="1" vertex="1">
          <mxGeometry x="970" y="420" width="20" height="20" as="geometry"/>
        </mxCell>
        <mxCell id="14" value="" style="endArrow=none;html=1;strokeWidth=3;fillColor=#76608a;strokeColor=#B3B3B3;" parent="1" source="35" target="34" edge="1">
          <mxGeometry width="50" height="50" relative="1" as="geometry">
            <mxPoint x="740" y="470" as="sourcePoint"/>
            <mxPoint x="880" y="320" as="targetPoint"/>
          </mxGeometry>
        </mxCell>
        <mxCell id="15" value="" style="endArrow=none;html=1;strokeWidth=3;fillColor=#76608a;strokeColor=#B3B3B3;" parent="1" source="35" target="32" edge="1">
          <mxGeometry width="50" height="50" relative="1" as="geometry">
            <mxPoint x="720" y="500" as="sourcePoint"/>
            <mxPoint x="470" y="570" as="targetPoint"/>
          </mxGeometry>
        </mxCell>
        <mxCell id="16" value="" style="endArrow=none;html=1;strokeWidth=3;fillColor=#76608a;strokeColor=#B3B3B3;" parent="1" source="34" target="24" edge="1">
          <mxGeometry width="50" height="50" relative="1" as="geometry">
            <mxPoint x="880" y="290" as="sourcePoint"/>
            <mxPoint x="940" y="370" as="targetPoint"/>
          </mxGeometry>
        </mxCell>
        <mxCell id="17" value="" style="endArrow=none;html=1;strokeWidth=3;fillColor=#76608a;strokeColor=#B3B3B3;" parent="1" edge="1">
          <mxGeometry width="50" height="50" relative="1" as="geometry">
            <mxPoint x="610" y="390" as="sourcePoint"/>
            <mxPoint x="880" y="290" as="targetPoint"/>
          </mxGeometry>
        </mxCell>
        <mxCell id="18" value="" style="endArrow=none;html=1;strokeWidth=3;fillColor=#76608a;strokeColor=#B3B3B3;" parent="1" edge="1">
          <mxGeometry width="50" height="50" relative="1" as="geometry">
            <mxPoint x="430" y="550" as="sourcePoint"/>
            <mxPoint x="820" y="200" as="targetPoint"/>
          </mxGeometry>
        </mxCell>
        <mxCell id="20" value="" style="endArrow=none;html=1;strokeWidth=3;fillColor=#76608a;strokeColor=#B3B3B3;" parent="1" edge="1">
          <mxGeometry width="50" height="50" relative="1" as="geometry">
            <mxPoint x="820" y="200" as="sourcePoint"/>
            <mxPoint x="480" y="240" as="targetPoint"/>
          </mxGeometry>
        </mxCell>
        <mxCell id="21" value="" style="endArrow=none;html=1;strokeWidth=3;fillColor=#76608a;strokeColor=#B3B3B3;exitX=0;exitY=0.5;exitDx=0;exitDy=0;" parent="1" source="23" edge="1">
          <mxGeometry width="50" height="50" relative="1" as="geometry">
            <mxPoint x="480" y="240" as="sourcePoint"/>
            <mxPoint x="160" y="160" as="targetPoint"/>
          </mxGeometry>
        </mxCell>
        <mxCell id="23" value="" style="ellipse;whiteSpace=wrap;html=1;aspect=fixed;fillColor=#d5e8d4;strokeColor=#82b366;rotation=5;" parent="1" vertex="1">
          <mxGeometry x="310" y="190" width="20.42" height="20.42" as="geometry"/>
        </mxCell>
        <mxCell id="24" value="" style="ellipse;whiteSpace=wrap;html=1;aspect=fixed;fillColor=#f8cecc;strokeColor=#b85450;" parent="1" vertex="1">
          <mxGeometry x="1010" y="370" width="20" height="20" as="geometry"/>
        </mxCell>
        <mxCell id="27" style="edgeStyle=orthogonalEdgeStyle;rounded=0;orthogonalLoop=1;jettySize=auto;html=1;exitX=0.5;exitY=1;exitDx=0;exitDy=0;strokeColor=#B3B3B3;strokeWidth=3;fontColor=#000000;" parent="1" source="42" target="42" edge="1">
          <mxGeometry relative="1" as="geometry"/>
        </mxCell>
        <mxCell id="69" style="edgeStyle=none;curved=1;orthogonalLoop=1;jettySize=auto;html=1;strokeColor=#994C00;strokeWidth=2;" parent="1" source="28" target="34" edge="1">
          <mxGeometry relative="1" as="geometry">
            <Array as="points">
              <mxPoint x="1090" y="310"/>
            </Array>
          </mxGeometry>
        </mxCell>
        <mxCell id="28" value="" style="ellipse;whiteSpace=wrap;html=1;aspect=fixed;fillColor=#f5f5f5;strokeColor=#666666;rotation=5;fontColor=#333333;" parent="1" vertex="1">
          <mxGeometry x="1150" y="460" width="20" height="20" as="geometry"/>
        </mxCell>
        <mxCell id="82" style="edgeStyle=none;curved=1;orthogonalLoop=1;jettySize=auto;html=1;strokeColor=#994C00;strokeWidth=2;fontColor=#994C00;" parent="1" source="29" target="30" edge="1">
          <mxGeometry relative="1" as="geometry">
            <Array as="points">
              <mxPoint x="430" y="250"/>
            </Array>
          </mxGeometry>
        </mxCell>
        <mxCell id="29" value="" style="ellipse;whiteSpace=wrap;html=1;aspect=fixed;fillColor=#1ba1e2;strokeColor=#006EAF;rotation=5;fontColor=#ffffff;" parent="1" vertex="1">
          <mxGeometry x="390.47" y="210.42" width="20" height="20" as="geometry"/>
        </mxCell>
        <mxCell id="65" style="edgeStyle=none;curved=1;orthogonalLoop=1;jettySize=auto;html=1;strokeColor=#994C00;strokeWidth=2;" parent="1" source="29" target="36" edge="1">
          <mxGeometry relative="1" as="geometry">
            <Array as="points">
              <mxPoint x="330" y="120"/>
            </Array>
          </mxGeometry>
        </mxCell>
        <mxCell id="66" style="edgeStyle=none;curved=1;orthogonalLoop=1;jettySize=auto;html=1;strokeColor=#994C00;strokeWidth=2;" parent="1" source="30" target="31" edge="1">
          <mxGeometry relative="1" as="geometry">
            <Array as="points">
              <mxPoint x="670" y="239"/>
            </Array>
          </mxGeometry>
        </mxCell>
        <mxCell id="83" style="edgeStyle=none;curved=1;orthogonalLoop=1;jettySize=auto;html=1;strokeColor=#994C00;strokeWidth=2;fontColor=#994C00;" parent="1" source="30" target="29" edge="1">
          <mxGeometry relative="1" as="geometry">
            <Array as="points">
              <mxPoint x="450" y="210"/>
            </Array>
          </mxGeometry>
        </mxCell>
        <mxCell id="30" value="" style="ellipse;whiteSpace=wrap;html=1;aspect=fixed;fillColor=#f5f5f5;strokeColor=#666666;rotation=5;fontColor=#333333;" parent="1" vertex="1">
          <mxGeometry x="469.99999999999994" y="230.42" width="20" height="20" as="geometry"/>
        </mxCell>
        <mxCell id="63" style="edgeStyle=none;curved=1;orthogonalLoop=1;jettySize=auto;html=1;strokeColor=#994C00;strokeWidth=2;" parent="1" source="31" target="33" edge="1">
          <mxGeometry relative="1" as="geometry">
            <Array as="points">
              <mxPoint x="650" y="290"/>
            </Array>
          </mxGeometry>
        </mxCell>
        <mxCell id="67" style="edgeStyle=none;curved=1;orthogonalLoop=1;jettySize=auto;html=1;strokeColor=#994C00;strokeWidth=2;" parent="1" source="31" target="30" edge="1">
          <mxGeometry relative="1" as="geometry">
            <Array as="points">
              <mxPoint x="650" y="190"/>
            </Array>
          </mxGeometry>
        </mxCell>
        <mxCell id="31" value="" style="ellipse;whiteSpace=wrap;html=1;aspect=fixed;fillColor=#f5f5f5;strokeColor=#666666;rotation=5;fontColor=#333333;" parent="1" vertex="1">
          <mxGeometry x="810" y="190.42" width="20" height="20" as="geometry"/>
        </mxCell>
        <mxCell id="57" style="edgeStyle=none;curved=1;orthogonalLoop=1;jettySize=auto;html=1;strokeColor=#994C00;strokeWidth=2;" parent="1" source="32" target="35" edge="1">
          <mxGeometry relative="1" as="geometry">
            <Array as="points">
              <mxPoint x="580" y="549"/>
            </Array>
          </mxGeometry>
        </mxCell>
        <mxCell id="32" value="" style="ellipse;whiteSpace=wrap;html=1;aspect=fixed;fillColor=#f5f5f5;strokeColor=#666666;rotation=5;fontColor=#333333;" parent="1" vertex="1">
          <mxGeometry x="420" y="540" width="20" height="20" as="geometry"/>
        </mxCell>
        <mxCell id="59" style="edgeStyle=none;curved=1;orthogonalLoop=1;jettySize=auto;html=1;strokeColor=#994C00;strokeWidth=2;" parent="1" source="33" target="32" edge="1">
          <mxGeometry relative="1" as="geometry">
            <Array as="points">
              <mxPoint x="520" y="420"/>
            </Array>
          </mxGeometry>
        </mxCell>
        <mxCell id="61" style="edgeStyle=none;curved=1;orthogonalLoop=1;jettySize=auto;html=1;strokeColor=#994C00;strokeWidth=2;" parent="1" source="33" target="34" edge="1">
          <mxGeometry relative="1" as="geometry">
            <Array as="points">
              <mxPoint x="770" y="370"/>
            </Array>
          </mxGeometry>
        </mxCell>
        <mxCell id="62" style="edgeStyle=none;curved=1;orthogonalLoop=1;jettySize=auto;html=1;strokeColor=#994C00;strokeWidth=2;" parent="1" source="33" target="31" edge="1">
          <mxGeometry relative="1" as="geometry">
            <Array as="points">
              <mxPoint x="760" y="300"/>
            </Array>
          </mxGeometry>
        </mxCell>
        <mxCell id="33" value="" style="ellipse;whiteSpace=wrap;html=1;aspect=fixed;fillColor=#f5f5f5;strokeColor=#666666;rotation=5;fontColor=#333333;" parent="1" vertex="1">
          <mxGeometry x="600" y="380" width="20" height="20" as="geometry"/>
        </mxCell>
        <mxCell id="60" style="edgeStyle=none;curved=1;orthogonalLoop=1;jettySize=auto;html=1;strokeColor=#994C00;strokeWidth=2;" parent="1" source="34" target="33" edge="1">
          <mxGeometry relative="1" as="geometry">
            <Array as="points">
              <mxPoint x="740" y="310"/>
            </Array>
          </mxGeometry>
        </mxCell>
        <mxCell id="34" value="" style="ellipse;whiteSpace=wrap;html=1;aspect=fixed;fillColor=#1ba1e2;strokeColor=#006EAF;rotation=5;fontColor=#ffffff;" parent="1" vertex="1">
          <mxGeometry x="870" y="280.41999999999996" width="20" height="20" as="geometry"/>
        </mxCell>
        <mxCell id="58" style="edgeStyle=none;curved=1;orthogonalLoop=1;jettySize=auto;html=1;strokeColor=#994C00;strokeWidth=2;" parent="1" source="35" target="34" edge="1">
          <mxGeometry relative="1" as="geometry">
            <Array as="points">
              <mxPoint x="830" y="420"/>
            </Array>
          </mxGeometry>
        </mxCell>
        <mxCell id="35" value="" style="ellipse;whiteSpace=wrap;html=1;aspect=fixed;fillColor=#f5f5f5;strokeColor=#666666;rotation=5;fontColor=#333333;" parent="1" vertex="1">
          <mxGeometry x="730" y="460" width="20" height="20" as="geometry"/>
        </mxCell>
        <mxCell id="64" style="edgeStyle=none;curved=1;orthogonalLoop=1;jettySize=auto;html=1;strokeColor=#994C00;strokeWidth=2;" parent="1" source="36" target="29" edge="1">
          <mxGeometry relative="1" as="geometry">
            <Array as="points">
              <mxPoint x="290" y="230"/>
            </Array>
          </mxGeometry>
        </mxCell>
        <mxCell id="36" value="" style="ellipse;whiteSpace=wrap;html=1;aspect=fixed;fillColor=#f5f5f5;strokeColor=#666666;rotation=5;fontColor=#333333;" parent="1" vertex="1">
          <mxGeometry x="149.99999999999994" y="150" width="20" height="20" as="geometry"/>
        </mxCell>
        <mxCell id="37" value="&lt;div&gt;&lt;font style=&quot;font-size: 16px&quot;&gt;`c_1^B`&lt;/font&gt;&lt;/div&gt;" style="text;html=1;strokeColor=none;fillColor=none;align=center;verticalAlign=middle;whiteSpace=wrap;rounded=0;fontColor=#000000;" parent="1" vertex="1">
          <mxGeometry x="1010" y="339.99999999999994" width="40" height="20" as="geometry"/>
        </mxCell>
        <mxCell id="38" value="" style="endArrow=none;html=1;strokeWidth=3;fillColor=#76608a;strokeColor=#B3B3B3;" parent="1" source="30" target="29" edge="1">
          <mxGeometry width="50" height="50" relative="1" as="geometry">
            <mxPoint x="490" y="250.0000000000001" as="sourcePoint"/>
            <mxPoint x="170" y="170.0000000000001" as="targetPoint"/>
          </mxGeometry>
        </mxCell>
        <mxCell id="39" value="" style="endArrow=none;html=1;strokeWidth=3;fillColor=#76608a;strokeColor=#B3B3B3;" parent="1" source="29" target="23" edge="1">
          <mxGeometry width="50" height="50" relative="1" as="geometry">
            <mxPoint x="400.76658894558864" y="228.00260183065996" as="sourcePoint"/>
            <mxPoint x="170" y="170.0000000000001" as="targetPoint"/>
          </mxGeometry>
        </mxCell>
        <mxCell id="40" value="" style="endArrow=none;html=1;strokeWidth=3;fillColor=#76608a;strokeColor=#B3B3B3;" parent="1" source="24" target="28" edge="1">
          <mxGeometry width="50" height="50" relative="1" as="geometry">
            <mxPoint x="890" y="320" as="sourcePoint"/>
            <mxPoint x="1170" y="500" as="targetPoint"/>
          </mxGeometry>
        </mxCell>
        <mxCell id="41" value="" style="endArrow=none;html=1;strokeWidth=3;fillColor=#76608a;strokeColor=#B3B3B3;" parent="1" source="32" target="29" edge="1">
          <mxGeometry width="50" height="50" relative="1" as="geometry">
            <mxPoint x="440" y="560" as="sourcePoint"/>
            <mxPoint x="401.7242165503176" y="280.36646157795303" as="targetPoint"/>
          </mxGeometry>
        </mxCell>
        <mxCell id="42" value="&lt;font style=&quot;font-size: 16px&quot;&gt;`c_1^A`&lt;/font&gt;" style="text;html=1;strokeColor=none;fillColor=none;align=center;verticalAlign=middle;whiteSpace=wrap;rounded=0;fontColor=#000000;" parent="1" vertex="1">
          <mxGeometry x="290.42" y="160" width="40" height="20" as="geometry"/>
        </mxCell>
        <mxCell id="46" value="" style="endArrow=block;html=1;fillColor=#fff2cc;strokeColor=#EA6B66;strokeWidth=5;endFill=1;" parent="1" source="23" edge="1">
          <mxGeometry width="50" height="50" relative="1" as="geometry">
            <mxPoint x="410.4749027158893" y="160.00284049438736" as="sourcePoint"/>
            <mxPoint x="360" y="210" as="targetPoint"/>
          </mxGeometry>
        </mxCell>
        <mxCell id="47" value="" style="endArrow=block;html=1;fillColor=#fff2cc;strokeColor=#EA6B66;strokeWidth=5;endFill=1;" parent="1" target="24" edge="1">
          <mxGeometry width="50" height="50" relative="1" as="geometry">
            <mxPoint x="984" y="357" as="sourcePoint"/>
            <mxPoint x="970" y="387.4400000000001" as="targetPoint"/>
          </mxGeometry>
        </mxCell>
        <mxCell id="70" value="" style="triangle;whiteSpace=wrap;html=1;strokeColor=#666666;strokeWidth=1;fillColor=#f5f5f5;fontColor=#333333;rotation=-14;" parent="1" vertex="1">
          <mxGeometry x="572" y="492" width="50" height="30" as="geometry"/>
        </mxCell>
        <mxCell id="72" value="" style="triangle;whiteSpace=wrap;html=1;strokeColor=#666666;strokeWidth=1;fillColor=#f5f5f5;fontColor=#333333;rotation=-53;" parent="1" vertex="1">
          <mxGeometry x="781" y="371" width="50" height="30" as="geometry"/>
        </mxCell>
        <mxCell id="73" value="" style="triangle;whiteSpace=wrap;html=1;strokeColor=#666666;strokeWidth=1;fillColor=#f5f5f5;fontColor=#333333;rotation=-221.1;" parent="1" vertex="1">
          <mxGeometry x="498" y="452" width="50" height="30" as="geometry"/>
        </mxCell>
        <mxCell id="75" value="&lt;b&gt;Legend&lt;/b&gt;" style="text;html=1;strokeColor=none;align=center;verticalAlign=middle;whiteSpace=wrap;rounded=0;fillColor=#a8ca40;fontColor=#FFFFFF;" parent="1" vertex="1">
          <mxGeometry x="970.21" y="489.99999999999994" width="139.79" height="20" as="geometry"/>
        </mxCell>
        <mxCell id="77" value="Street map `M`" style="text;html=1;strokeColor=none;fillColor=none;align=left;verticalAlign=middle;whiteSpace=wrap;rounded=0;" parent="1" vertex="1">
          <mxGeometry x="1020.6300000000001" y="520" width="89.37" height="20" as="geometry"/>
        </mxCell>
        <mxCell id="78" value="" style="curved=1;html=1;strokeColor=#994C00;fontColor=#000000;fontSize=11;rounded=1;strokeWidth=2;" parent="1" edge="1">
          <mxGeometry width="50" height="50" relative="1" as="geometry">
            <mxPoint x="970" y="550" as="sourcePoint"/>
            <mxPoint x="1010" y="550" as="targetPoint"/>
            <Array as="points"/>
          </mxGeometry>
        </mxCell>
        <mxCell id="79" value="&lt;span style=&quot;text-align: right&quot;&gt;Street graph `G`&lt;/span&gt;" style="text;html=1;strokeColor=none;fillColor=none;align=left;verticalAlign=middle;whiteSpace=wrap;rounded=0;" parent="1" vertex="1">
          <mxGeometry x="1020.6300000000001" y="540" width="89.37" height="20" as="geometry"/>
        </mxCell>
        <mxCell id="80" value="" style="endArrow=none;html=1;strokeWidth=3;fillColor=#76608a;strokeColor=#B3B3B3;" parent="1" edge="1">
          <mxGeometry width="50" height="50" relative="1" as="geometry">
            <mxPoint x="1010" y="530" as="sourcePoint"/>
            <mxPoint x="970" y="530" as="targetPoint"/>
          </mxGeometry>
        </mxCell>
        <mxCell id="54" style="edgeStyle=none;curved=1;orthogonalLoop=1;jettySize=auto;html=1;strokeWidth=2;strokeColor=#994C00;" parent="1" source="32" target="29" edge="1">
          <mxGeometry relative="1" as="geometry">
            <Array as="points">
              <mxPoint x="440" y="380"/>
            </Array>
          </mxGeometry>
        </mxCell>
        <mxCell id="53" style="edgeStyle=none;curved=1;orthogonalLoop=1;jettySize=auto;html=1;strokeWidth=2;strokeColor=#994C00;" parent="1" source="29" target="32" edge="1">
          <mxGeometry relative="1" as="geometry">
            <Array as="points">
              <mxPoint x="390" y="390"/>
            </Array>
          </mxGeometry>
        </mxCell>
        <mxCell id="68" style="edgeStyle=none;curved=1;orthogonalLoop=1;jettySize=auto;html=1;strokeColor=#994C00;strokeWidth=2;" parent="1" source="34" target="28" edge="1">
          <mxGeometry relative="1" as="geometry">
            <Array as="points">
              <mxPoint x="1000" y="410"/>
            </Array>
          </mxGeometry>
        </mxCell>
      </root>
    </mxGraphModel>
  </diagram>
</mxfile>
